name C:\Users\r0593348\3dpredictsim\Results\MidTarsalJoint\Fal_s1_bCst_PF_Natali2010_ls150_MT_k30_d010_MTP_T5_ig24.mot
datacolumns 128
datarows 4
range 1.76845547 1.80382458
endheader
time	pelvis_tilt	pelvis_list	pelvis_rotation	pelvis_tx	pelvis_ty	pelvis_tz	hip_flexion_l	hip_adduction_l	hip_rotation_l	hip_flexion_r	hip_adduction_r	hip_rotation_r	knee_angle_l	knee_angle_r	ankle_angle_l	ankle_angle_r	subtalar_angle_l	subtalar_angle_r	mtj_angle_l	mtj_angle_r	mtp_angle_l	mtp_angle_r	lumbar_extension	lumbar_bending	lumbar_rotation	arm_flex_l	arm_add_l	arm_rot_l	arm_flex_r	arm_add_r	arm_rot_r	elbow_flex_l	elbow_flex_r	pro_sup_l	pro_sup_r	glut_med1_l/activation	glut_med2_l/activation	glut_med3_l/activation	glut_min1_l/activation	glut_min2_l/activation	glut_min3_l/activation	semimem_l/activation	semiten_l/activation	bifemlh_l/activation	bifemsh_l/activation	sar_l/activation	add_long_l/activation	add_brev_l/activation	add_mag1_l/activation	add_mag2_l/activation	add_mag3_l/activation	tfl_l/activation	pect_l/activation	grac_l/activation	glut_max1_l/activation	glut_max2_l/activation	glut_max3_l/activation	iliacus_l/activation	psoas_l/activation	quad_fem_l/activation	gem_l/activation	peri_l/activation	rect_fem_l/activation	vas_med_l/activation	vas_int_l/activation	vas_lat_l/activation	med_gas_l/activation	lat_gas_l/activation	soleus_l/activation	tib_post_l/activation	flex_dig_l/activation	flex_hal_l/activation	tib_ant_l/activation	per_brev_l/activation	per_long_l/activation	per_tert_l/activation	ext_dig_l/activation	ext_hal_l/activation	ercspn_l/activation	intobl_l/activation	extobl_l/activation	glut_med1_r/activation	glut_med2_r/activation	glut_med3_r/activation	glut_min1_r/activation	glut_min2_r/activation	glut_min3_r/activation	semimem_r/activation	semiten_r/activation	bifemlh_r/activation	bifemsh_r/activation	sar_r/activation	add_long_r/activation	add_brev_r/activation	add_mag1_r/activation	add_mag2_r/activation	add_mag3_r/activation	tfl_r/activation	pect_r/activation	grac_r/activation	glut_max1_r/activation	glut_max2_r/activation	glut_max3_r/activation	iliacus_r/activation	psoas_r/activation	quad_fem_r/activation	gem_r/activation	peri_r/activation	rect_fem_r/activation	vas_med_r/activation	vas_int_r/activation	vas_lat_r/activation	med_gas_r/activation	lat_gas_r/activation	soleus_r/activation	tib_post_r/activation	flex_dig_r/activation	flex_hal_r/activation	tib_ant_r/activation	per_brev_r/activation	per_long_r/activation	per_tert_r/activation	ext_dig_r/activation	ext_hal_r/activation	ercspn_r/activation	intobl_r/activation	extobl_r/activation	
          1.76845547	         -2.92696224	          2.60350723	         -6.95429773	          2.21056934	          0.91417141	          0.00171868	         28.41406814	          3.93308740	         -1.16271333	        -15.81179065	         -2.50015090	          5.94312543	        -10.42803670	        -13.29977895	          4.26331880	         -7.21881877	         -7.25753495	         14.03012735	         -0.44091128	         13.08673206	         -0.74207078	         -1.14953052	         -1.27842883	         -0.73779166	          2.57910284	         -8.26110650	        -13.52615510	          6.02880946	          4.99930945	        -13.46409620	         17.27938207	         16.42465160	         38.55803322	         86.51662706	         86.51662706	          0.22508929	          0.20762579	          0.20783819	          0.26218034	          0.18015938	          0.16805557	          0.16632296	          0.08107681	          0.09454344	          0.07448837	          0.05000012	          0.10247494	          0.23993689	          0.25561823	          0.17055042	          0.12885031	          0.05000007	          0.05982499	          0.11459438	          0.05000026	          0.13879212	          0.13079864	          0.05000052	          0.05000025	          0.43401317	          0.15992143	          0.15663369	          0.05000004	          0.05030180	          0.05005272	          0.05000045	          0.05062262	          0.05592836	          0.05000001	          0.05000001	          0.05000006	          0.05000007	          0.49137750	          0.31642486	          0.17760865	          0.26862576	          0.46831987	          0.15148775	          0.05000002	          0.14054468	          0.07459573	          0.28416508	          0.07623944	          0.05603330	          0.24976313	          0.13968019	          0.08564521	          0.05000030	          0.05000004	          0.05000003	          0.05000003	          0.08509279	          0.08772192	          0.05000009	          0.05000017	          0.05000019	          0.05000016	          0.30035102	          0.05000031	          0.05000015	          0.05000090	          0.05000058	          0.05000028	          0.36422419	          0.60299787	          0.05000009	          0.05000026	          0.05000009	          0.25128582	          0.08857687	          0.10239988	          0.10541307	          0.21915289	          0.30550632	          0.35123271	          0.20939301	          0.14464864	          0.20381238	          0.05000000	          0.12269679	          0.19268879	          0.05000003	          0.05000000	          0.05000004	          0.05000000	          0.05982474	          0.05015144	
          1.78024518	         -2.92203782	          2.69009530	         -7.20228607	          2.22871890	          0.91312917	          0.00151566	         27.69921836	          4.19103672	         -0.87672453	        -15.67352479	         -2.82143995	          5.70289428	        -11.09862029	        -15.22438668	          3.55465035	         -7.69114257	         -7.56595213	         14.72257643	         -0.47997830	         11.49981288	         -0.64156611	         -0.14275209	         -1.05330700	         -0.93414785	          2.63036672	         -9.23265374	        -13.52379722	          6.09343591	          4.63656420	        -13.47061396	         17.52435343	         16.07633921	         39.71507826	         86.51662706	         86.51662706	          0.30962127	          0.31692882	          0.33235262	          0.21912369	          0.17635563	          0.18941658	          0.13900849	          0.06776308	          0.07901702	          0.06225550	          0.05000011	          0.08564594	          0.20053313	          0.21363921	          0.14254175	          0.15008354	          0.05000007	          0.05000028	          0.09577510	          0.20061696	          0.18866156	          0.15250481	          0.05000000	          0.05000000	          0.36273713	          0.13365827	          0.13091050	          0.05000001	          0.06875827	          0.07998170	          0.06209916	          0.05000000	          0.05000000	          0.05000000	          0.05000002	          0.05000003	          0.05000004	          0.57080777	          0.32900456	          0.19095074	          0.49613313	          0.50557603	          0.27017799	          0.07146395	          0.11746366	          0.06234521	          0.24728837	          0.06371899	          0.05000003	          0.25337855	          0.11674117	          0.07158009	          0.05000034	          0.05000003	          0.05000002	          0.05000003	          0.07157955	          0.07556485	          0.05000018	          0.05000015	          0.05000028	          0.05000014	          0.27490442	          0.05000175	          0.05000020	          0.05000044	          0.05000027	          0.05000015	          0.31521814	          0.57439027	          0.05000004	          0.05000022	          0.05000011	          0.21001829	          0.07403076	          0.12987461	          0.14670135	          0.18316239	          0.25533439	          0.29355133	          0.17500535	          0.12089368	          0.17034122	          0.05000000	          0.13643242	          0.20005935	          0.05000006	          0.05000007	          0.05000004	          0.05882422	          0.05000000	          0.05000000	
          1.79203488	         -2.91585970	          2.76553157	         -7.40481965	          2.24684259	          0.91238350	          0.00128324	         27.04228785	          4.45591565	         -0.60251486	        -15.43478023	         -3.12385343	          5.48099989	        -11.85395574	        -17.23371692	          2.82143734	         -8.23410965	         -7.87790457	         15.31505747	         -0.49051062	          9.46833376	         -0.58871021	          1.26737674	         -0.84141313	         -1.13236520	          2.67368769	        -10.14866077	        -13.51590548	          6.19516260	          4.25216779	        -13.47727838	         17.73924018	         15.74566635	         40.77429427	         86.51662706	         86.51662706	          0.38225384	          0.36849118	          0.39084417	          0.20658485	          0.14739378	          0.22629037	          0.11617975	          0.07199372	          0.07177894	          0.05203159	          0.05000006	          0.07158071	          0.16760067	          0.17866185	          0.19098486	          0.17245210	          0.05000005	          0.05813249	          0.10002507	          0.23753521	          0.21493942	          0.18058674	          0.05000003	          0.05000002	          0.30316644	          0.11170818	          0.15915108	          0.05000001	          0.14665655	          0.15493166	          0.12755793	          0.05000000	          0.05000001	          0.05000000	          0.05000000	          0.05000005	          0.05000003	          0.62141148	          0.27497362	          0.15959176	          0.44436180	          0.51272622	          0.31252954	          0.08343648	          0.09817313	          0.05210653	          0.26371611	          0.05325472	          0.05000003	          0.21754070	          0.09756931	          0.05982483	          0.05000030	          0.05000003	          0.05000003	          0.05000003	          0.05982510	          0.09099848	          0.05000008	          0.05000013	          0.05000021	          0.05000010	          0.22975825	          0.05087777	          0.05000016	          0.05000044	          0.05000025	          0.05000012	          0.26345128	          0.52967074	          0.05000004	          0.05000016	          0.05000003	          0.17552793	          0.11596573	          0.10875210	          0.12260941	          0.15308245	          0.21340196	          0.24534271	          0.14626501	          0.10103987	          0.14236685	          0.06622841	          0.15721709	          0.19058105	          0.05000004	          0.11452910	          0.05000014	          0.07981570	          0.05000000	          0.05000000	
          1.80382458	         -2.90835899	          2.83177286	         -7.56576848	          2.26484954	          0.91201737	          0.00102640	         26.43160161	          4.72971752	         -0.33209882	        -15.07573323	         -3.40444278	          5.27073808	        -12.67443729	        -19.33861591	          2.08234193	         -8.86900671	         -8.17738402	         15.79398287	         -0.52436001	          7.03715182	         -0.56371273	          2.95937749	         -0.64361404	         -1.33132658	          2.70811574	        -10.99493582	        -13.50213198	          6.32256457	          3.86716199	        -13.48098187	         17.94427847	         15.43172680	         41.71203520	         86.51662706	         86.51662706	          0.45726884	          0.43417095	          0.44236733	          0.17265872	          0.21460583	          0.21339167	          0.09710007	          0.07430394	          0.06547502	          0.05000012	          0.05000007	          0.05982534	          0.14007638	          0.14932114	          0.19521894	          0.19655008	          0.05000004	          0.05000022	          0.08359852	          0.29094384	          0.24968073	          0.21040611	          0.05000000	          0.05000001	          0.25337877	          0.09336287	          0.13301445	          0.05000000	          0.24727839	          0.25281932	          0.21198887	          0.05000000	          0.05000002	          0.05000000	          0.12933841	          0.05000200	          0.05000114	          0.68362858	          0.22981593	          0.13338273	          0.37138625	          0.49198247	          0.26501773	          0.09009827	          0.08205059	          0.05000000	          0.22040726	          0.05000001	          0.05000000	          0.18181505	          0.08154596	          0.05000009	          0.05000036	          0.05000003	          0.05000003	          0.05000001	          0.05000041	          0.11907637	          0.12039777	          0.05000021	          0.05000047	          0.07570287	          0.20181450	          0.05002901	          0.05000007	          0.05000024	          0.05000016	          0.05000009	          0.22018586	          0.48271839	          0.05000001	          0.05000005	          0.05000001	          0.14670176	          0.10247396	          0.10247396	          0.10247396	          0.12794240	          0.17835591	          0.20505117	          0.12224457	          0.08444656	          0.11898660	          0.13977031	          0.14410321	          0.15928280	          0.07718217	          0.17843162	          0.05000017	          0.09903188	          0.05000000	          0.05000000	
